HIERARCHY
ROOT Hips
{
	OFFSET 0.000000 121.760803 0.000000
	CHANNELS 6 Xposition Yposition Zposition Xrotation Yrotation Zrotation 
	JOINT Spine
	{
		OFFSET 0.072000 7.257294 -0.789700
		CHANNELS 3 Xrotation Yrotation Zrotation
		JOINT Spine1
		{
			OFFSET 0.000000 12.508769 -0.658067
			CHANNELS 3 Xrotation Yrotation Zrotation
			JOINT Spine1_split
			{
				OFFSET 0.000000 12.508769 -0.658067
				CHANNELS 3 Xrotation Yrotation Zrotation
				JOINT Spine2
				{
					OFFSET 0.000000 12.508769 -0.658067
					CHANNELS 3 Xrotation Yrotation Zrotation
					JOINT Neck
					{
						OFFSET 0.000000 14.033295 7.520400
						CHANNELS 3 Xrotation Yrotation Zrotation
						JOINT Head
						{
							OFFSET 0.000000 8.198502 5.703100
							CHANNELS 3 Xrotation Yrotation Zrotation
							JOINT HeadTop_End
							{
								OFFSET 0.000000 17.760803 13.332701
								CHANNELS 3 Xrotation Yrotation Zrotation
								End Site
								{
									OFFSET 0.000000 0.000000 0.000000
								}
							}
						}
					}
					JOINT LeftShoulder
					{
						OFFSET 6.292450 5.785301 -0.669000
						CHANNELS 3 Xrotation Yrotation Zrotation
						JOINT LeftShoulder_split
						{
							OFFSET 6.292450 5.785301 -0.669000
							CHANNELS 3 Xrotation Yrotation Zrotation
							JOINT LeftArm
							{
								OFFSET 13.907140 -6.093903 1.965100
								CHANNELS 3 Xrotation Yrotation Zrotation
								JOINT LeftForeArm
								{
									OFFSET 34.140198 0.000000 0.000000
									CHANNELS 3 Xrotation Yrotation Zrotation
									JOINT LeftHand
									{
										OFFSET 40.960209 0.000000 0.000000
										CHANNELS 3 Xrotation Yrotation Zrotation
										JOINT LeftHandThumb1
										{
											OFFSET 10.006996 -7.170425 9.573125
											CHANNELS 3 Xrotation Yrotation Zrotation
											JOINT LeftHandThumb2
											{
												OFFSET 1.835007 -1.059448 1.059443
												CHANNELS 3 Xrotation Yrotation Zrotation
												JOINT LeftHandThumb3
												{
													OFFSET 2.112267 -1.219513 1.219518
													CHANNELS 3 Xrotation Yrotation Zrotation
													JOINT LeftHandThumb4
													{
														OFFSET 4.843811 -2.796570 2.796576
														CHANNELS 3 Xrotation Yrotation Zrotation
														End Site
														{
															OFFSET 0.000000 0.000000 0.000000
														}
													}
												}
											}
										}
										JOINT LeftHandIndex1
										{
											OFFSET 18.389847 -0.922348 4.596882
											CHANNELS 3 Xrotation Yrotation Zrotation
											JOINT LeftHandIndex2
											{
												OFFSET 4.711273 0.000000 0.000000
												CHANNELS 3 Xrotation Yrotation Zrotation
												JOINT LeftHandIndex3
												{
													OFFSET 2.886131 0.000000 0.000000
													CHANNELS 3 Xrotation Yrotation Zrotation
													JOINT LeftHandIndex4
													{
														OFFSET 6.145912 0.000000 0.000000
														CHANNELS 3 Xrotation Yrotation Zrotation
														End Site
														{
															OFFSET 0.000000 0.000000 0.000000
														}
													}
												}
											}
										}
										JOINT LeftHandMiddle1
										{
											OFFSET 18.013008 0.000000 0.000000
											CHANNELS 3 Xrotation Yrotation Zrotation
											JOINT LeftHandMiddle2
											{
												OFFSET 4.946693 0.000000 0.000000
												CHANNELS 3 Xrotation Yrotation Zrotation
												JOINT LeftHandMiddle3
												{
													OFFSET 3.342232 0.000000 0.000000
													CHANNELS 3 Xrotation Yrotation Zrotation
													JOINT LeftHandMiddle4
													{
														OFFSET 4.461754 0.000000 0.000000
														CHANNELS 3 Xrotation Yrotation Zrotation
														End Site
														{
															OFFSET 0.000000 0.000000 0.000000
														}
													}
												}
											}
										}
										JOINT LeftHandRing1
										{
											OFFSET 15.849892 -0.102921 -4.126150
											CHANNELS 3 Xrotation Yrotation Zrotation
											JOINT LeftHandRing2
											{
												OFFSET 3.527054 0.000000 0.000000
												CHANNELS 3 Xrotation Yrotation Zrotation
												JOINT LeftHandRing3
												{
													OFFSET 2.961098 0.000000 0.000000
													CHANNELS 3 Xrotation Yrotation Zrotation
													JOINT LeftHandRing4
													{
														OFFSET 4.927200 0.000000 0.000000
														CHANNELS 3 Xrotation Yrotation Zrotation
														End Site
														{
															OFFSET 0.000000 0.000000 0.000000
														}
													}
												}
											}
										}
										JOINT LeftHandPinky1
										{
											OFFSET 12.791824 -0.832031 -6.799156
											CHANNELS 3 Xrotation Yrotation Zrotation
											JOINT LeftHandPinky2
											{
												OFFSET 3.327133 0.000000 0.000000
												CHANNELS 3 Xrotation Yrotation Zrotation
												JOINT LeftHandPinky3
												{
													OFFSET 3.014900 0.000000 0.000000
													CHANNELS 3 Xrotation Yrotation Zrotation
													JOINT LeftHandPinky4
													{
														OFFSET 5.847786 0.000000 0.000000
														CHANNELS 3 Xrotation Yrotation Zrotation
														End Site
														{
															OFFSET 0.000000 0.000000 0.000000
														}
													}
												}
											}
										}
									}
								}
							}
						}
					}
					JOINT RightShoulder
					{
						OFFSET -6.292450 5.785301 -0.669000
						CHANNELS 3 Xrotation Yrotation Zrotation
						JOINT RightShoulder_split
						{
							OFFSET -6.292450 5.785301 -0.669000
							CHANNELS 3 Xrotation Yrotation Zrotation
							JOINT RightArm
							{
								OFFSET -13.907140 -6.093903 1.965100
								CHANNELS 3 Xrotation Yrotation Zrotation
								JOINT RightForeArm
								{
									OFFSET -34.140198 0.000000 0.000000
									CHANNELS 3 Xrotation Yrotation Zrotation
									JOINT RightHand
									{
										OFFSET -40.960209 0.000000 0.000000
										CHANNELS 3 Xrotation Yrotation Zrotation
										JOINT RightHandThumb1
										{
											OFFSET -10.007050 -7.170456 9.573117
											CHANNELS 3 Xrotation Yrotation Zrotation
											JOINT RightHandThumb2
											{
												OFFSET -1.835007 -1.059448 1.059443
												CHANNELS 3 Xrotation Yrotation Zrotation
												JOINT RightHandThumb3
												{
													OFFSET -2.112267 -1.219513 1.219518
													CHANNELS 3 Xrotation Yrotation Zrotation
													JOINT RightHandThumb4
													{
														OFFSET -4.843834 -2.796585 2.796590
														CHANNELS 3 Xrotation Yrotation Zrotation
														End Site
														{
															OFFSET 0.000000 0.000000 0.000000
														}
													}
												}
											}
										}
										JOINT RightHandIndex1
										{
											OFFSET -18.389870 -0.922424 4.596786
											CHANNELS 3 Xrotation Yrotation Zrotation
											JOINT RightHandIndex2
											{
												OFFSET -4.711273 0.000000 0.000000
												CHANNELS 3 Xrotation Yrotation Zrotation
												JOINT RightHandIndex3
												{
													OFFSET -2.886131 0.000000 0.000000
													CHANNELS 3 Xrotation Yrotation Zrotation
													JOINT RightHandIndex4
													{
														OFFSET -6.145920 0.000000 0.000000
														CHANNELS 3 Xrotation Yrotation Zrotation
														End Site
														{
															OFFSET 0.000000 0.000000 0.000000
														}
													}
												}
											}
										}
										JOINT RightHandMiddle1
										{
											OFFSET -18.013008 0.000000 0.000000
											CHANNELS 3 Xrotation Yrotation Zrotation
											JOINT RightHandMiddle2
											{
												OFFSET -4.946693 0.000000 0.000000
												CHANNELS 3 Xrotation Yrotation Zrotation
												JOINT RightHandMiddle3
												{
													OFFSET -3.342232 0.000000 0.000000
													CHANNELS 3 Xrotation Yrotation Zrotation
													JOINT RightHandMiddle4
													{
														OFFSET -4.461754 0.000000 0.000000
														CHANNELS 3 Xrotation Yrotation Zrotation
														End Site
														{
															OFFSET 0.000000 0.000000 0.000000
														}
													}
												}
											}
										}
										JOINT RightHandRing1
										{
											OFFSET -15.849876 -0.102936 -4.126237
											CHANNELS 3 Xrotation Yrotation Zrotation
											JOINT RightHandRing2
											{
												OFFSET -3.527054 0.000000 0.000000
												CHANNELS 3 Xrotation Yrotation Zrotation
												JOINT RightHandRing3
												{
													OFFSET -2.961098 0.000000 0.000000
													CHANNELS 3 Xrotation Yrotation Zrotation
													JOINT RightHandRing4
													{
														OFFSET -4.927200 0.000000 0.000000
														CHANNELS 3 Xrotation Yrotation Zrotation
														End Site
														{
															OFFSET 0.000000 0.000000 0.000000
														}
													}
												}
											}
										}
										JOINT RightHandPinky1
										{
											OFFSET -12.791786 -0.832077 -6.799222
											CHANNELS 3 Xrotation Yrotation Zrotation
											JOINT RightHandPinky2
											{
												OFFSET -3.327133 0.000000 0.000000
												CHANNELS 3 Xrotation Yrotation Zrotation
												JOINT RightHandPinky3
												{
													OFFSET -3.014900 0.000000 0.000000
													CHANNELS 3 Xrotation Yrotation Zrotation
													JOINT RightHandPinky4
													{
														OFFSET -5.847786 0.000000 0.000000
														CHANNELS 3 Xrotation Yrotation Zrotation
														End Site
														{
															OFFSET 0.000000 0.000000 0.000000
														}
													}
												}
											}
										}
									}
								}
							}
						}
					}
				}
			}
		}
	}
	JOINT LeftUpLeg
	{
		OFFSET 13.026900 -6.336304 -1.092800
		CHANNELS 3 Xrotation Yrotation Zrotation
		JOINT LeftLeg
		{
			OFFSET 0.524474 -46.096886 9.782700
			CHANNELS 3 Xrotation Yrotation Zrotation
			JOINT LeftFoot
			{
				OFFSET -0.524474 -53.427422 -12.948200
				CHANNELS 3 Xrotation Yrotation Zrotation
				JOINT LeftToeBase
				{
					OFFSET 0.192200 -14.009700 16.364100
					CHANNELS 3 Xrotation Yrotation Zrotation
					JOINT LeftToe_End
					{
						OFFSET -1.784700 -0.561700 9.474800
						CHANNELS 3 Xrotation Yrotation Zrotation
						End Site
						{
							OFFSET 0.000000 0.000000 0.000000
						}
					}
				}
			}
		}
	}
	JOINT RightUpLeg
	{
		OFFSET -12.883000 -6.336304 -1.092800
		CHANNELS 3 Xrotation Yrotation Zrotation
		JOINT RightLeg
		{
			OFFSET -0.524587 -46.096825 9.782800
			CHANNELS 3 Xrotation Yrotation Zrotation
			JOINT RightFoot
			{
				OFFSET 0.524587 -53.427383 -12.948300
				CHANNELS 3 Xrotation Yrotation Zrotation
				JOINT RightToeBase
				{
					OFFSET -0.192200 -14.009700 16.364100
					CHANNELS 3 Xrotation Yrotation Zrotation
					JOINT RightToe_End
					{
						OFFSET 1.784700 -0.561700 9.474800
						CHANNELS 3 Xrotation Yrotation Zrotation
						End Site
						{
							OFFSET 0.000000 0.000000 0.000000
						}
					}
				}
			}
		}
	}
}
MOTION
Frames: 4
Frame Time: 0.016667
18.676735 35.802628 492.776672 44.168610 -48.336566 79.728470 9.797304 -9.037637 -4.205428 20.581460 -10.516342 -0.144603 0.000000 0.000000 0.000000 20.581467 -10.516333 -0.144613 6.882637 9.770575 -6.782376 -14.592954 28.209545 -15.856178 0.000001 -0.000002 -0.000003 0.362230 -5.563724 -21.430646 0.000000 0.000000 0.000000 0.286719 6.219478 -63.452034 -148.351750 -173.569068 -190.299329 39.822199 -0.729465 37.310615 -4.114277 -2.883213 2.590907 3.243734 8.782389 2.381185 -0.000008 -0.000007 -0.000020 -0.000004 -0.000002 -0.000003 -1.241507 -9.199126 -7.937333 0.088640 0.738666 -16.880075 0.000002 0.000002 -0.000000 -0.000001 0.000001 0.000000 -1.135458 -2.096675 -22.025803 -0.352552 -1.388813 -20.431056 0.000000 0.000000 -0.000006 -0.000000 0.000001 0.000000 -0.604915 6.370754 -33.094288 -0.503185 -2.580187 -29.586108 -0.000000 -0.000001 0.000001 0.000003 0.000001 -0.000003 1.054953 14.668670 -34.412324 -0.798118 -5.868237 -45.099930 -0.000001 0.000003 -0.000003 0.000000 -0.000000 -0.000002 -0.050570 24.927848 12.864282 0.000000 0.000000 0.000000 -31.840071 -0.829617 -5.819321 -379.939245 5.531959 357.334706 -23.422698 14.855860 -3.043166 -8.673387 4.254480 -11.634309 1.334052 -4.465144 -1.906671 -0.000006 0.000000 0.000000 0.000001 -0.000000 0.000002 -0.335824 9.317611 2.768380 0.227941 -1.535014 12.475406 0.000004 -0.000003 0.000008 -0.000000 -0.000001 -0.000001 -1.156261 -1.644409 1.983703 -0.068695 0.174109 10.971370 -0.000004 0.000010 -0.000003 -0.000002 -0.000000 0.000002 1.493754 -11.293071 7.517307 -0.170919 1.898998 13.177005 0.000002 -0.000001 -0.000005 0.000002 -0.000000 -0.000000 2.276083 -19.063010 5.358324 -0.684455 6.522606 19.944087 0.000003 -0.000002 0.000001 -0.000001 -0.000000 -0.000000 -68.600712 -9.195560 32.562111 34.371701 -12.708949 1.283796 0.383240 3.251380 -33.208578 1.360796 8.356246 -13.471653 -0.000000 -0.000000 -0.000000 -119.082408 -15.574846 -8.795708 128.398404 0.720877 -8.737827 59.082297 20.246614 41.656890 -2.194105 -2.097641 1.906838 -0.000002 -0.000003 0.000000 
18.807640 37.707520 500.265137 46.676625 -47.452869 78.089355 9.644899 -7.488909 -3.791823 20.001873 -8.523652 -0.281551 0.000000 0.000000 0.000000 20.001900 -8.523653 -0.281527 4.786785 10.382569 -5.045989 -15.958518 27.751243 -13.817695 0.000001 -0.000002 -0.000001 0.397069 -5.187131 -22.907263 0.000000 0.000000 0.000000 -0.202618 5.720639 -61.837589 -146.266998 -172.915487 -190.464579 42.708831 -0.958252 34.784425 -4.445397 -3.482517 2.728195 2.927695 8.062632 2.313115 -0.000003 -0.000006 -0.000016 -0.000001 -0.000003 0.000003 -1.336439 -9.878731 -7.883071 0.087941 0.739317 -16.878482 0.000001 0.000003 -0.000002 -0.000000 -0.000000 -0.000002 -1.169758 -2.214612 -21.672129 -0.339394 -1.353846 -20.091326 0.000001 0.000001 -0.000003 0.000002 0.000002 0.000001 -0.583582 6.403830 -32.534547 -0.486669 -2.550237 -29.022939 0.000002 -0.000002 0.000001 0.000002 0.000001 0.000000 1.177304 14.915642 -33.689556 -0.786899 -5.857025 -44.330711 -0.000001 -0.000002 -0.000004 0.000001 0.000001 -0.000002 -0.236752 25.773734 13.779218 0.000000 0.000000 0.000000 -31.371435 -4.560777 -1.693872 -384.756768 7.161675 357.547508 -27.510933 12.091510 2.976910 -7.433045 2.682794 -10.818164 1.979901 -5.919523 -2.080311 -0.000005 0.000002 0.000001 0.000000 -0.000001 -0.000001 -0.393903 9.214344 3.477797 0.148230 -1.237728 15.555647 0.000002 -0.000002 0.000002 -0.000000 -0.000001 -0.000002 -1.160005 -1.569473 2.937674 -0.161685 0.560295 15.420954 -0.000002 0.000010 -0.000001 -0.000001 -0.000000 0.000000 1.457508 -10.868864 11.271568 -0.249406 2.199694 16.784288 0.000002 -0.000001 -0.000001 0.000001 0.000000 0.000000 2.263658 -18.388036 10.401818 -0.823578 6.882898 24.954907 0.000004 -0.000002 0.000002 0.000000 -0.000001 -0.000001 -73.111643 -10.433520 35.657788 36.162891 -13.488846 -0.387325 4.816369 2.003463 -36.364586 0.899416 8.095131 -12.833485 -0.000000 0.000001 0.000001 -118.241694 -12.692743 -11.941332 128.309611 6.180664 -8.153473 58.744770 20.957088 43.926060 -1.200335 -1.237758 1.187019 -0.000003 -0.000003 -0.000004 
18.679123 39.468834 508.227844 48.248453 -46.972208 76.313437 9.398577 -5.913839 -3.630297 19.278004 -6.757568 -0.819778 0.000000 0.000000 0.000000 19.277992 -6.757578 -0.819788 2.631868 10.989365 -3.335730 -17.269379 27.297071 -11.811730 -0.000001 -0.000003 -0.000001 0.465106 -4.608227 -24.755908 0.000000 0.000000 0.000000 -0.485211 5.159795 -58.615386 -144.010796 -172.188277 -190.600267 45.765700 -1.440279 30.198790 -4.773355 -4.073353 2.858756 2.615703 7.353349 2.242171 -0.000006 -0.000006 -0.000016 0.000002 -0.000001 -0.000002 -1.428904 -10.548856 -7.827915 0.087335 0.740303 -16.874297 0.000000 0.000003 0.000000 0.000001 0.000002 -0.000001 -1.201777 -2.331312 -21.321008 -0.326561 -1.319089 -19.753894 0.000002 -0.000001 -0.000005 0.000000 -0.000001 -0.000001 -0.562668 6.437003 -31.980315 -0.470591 -2.520375 -28.465300 -0.000002 -0.000002 0.000002 0.000001 0.000000 -0.000000 1.292193 15.162496 -32.973401 -0.775889 -5.845674 -43.570002 0.000002 0.000001 -0.000002 0.000001 -0.000002 0.000000 -0.396556 26.079971 14.675674 0.000000 0.000000 0.000000 -30.053474 -9.716187 4.642509 -391.232525 11.814329 359.537961 -30.477913 10.402931 5.041873 -6.133045 1.047353 -9.912465 2.654148 -7.447368 -2.244908 -0.000005 0.000002 -0.000001 0.000000 -0.000000 0.000000 -0.450101 9.106274 4.214736 0.053985 -0.930989 18.768638 0.000003 -0.000002 0.000005 -0.000000 -0.000000 -0.000000 -1.164877 -1.492382 3.920521 -0.288222 0.955474 20.070735 -0.000001 0.000010 -0.000003 0.000000 0.000000 0.000001 1.386755 -10.440776 15.187361 -0.353054 2.507094 20.550987 0.000001 -0.000001 0.000000 0.000000 0.000000 0.000001 2.167644 -17.721312 15.653574 -1.011865 7.240388 30.198657 0.000004 -0.000001 0.000003 0.000000 -0.000000 -0.000000 -79.376162 -12.244126 37.398817 42.397860 -13.379033 -2.317538 8.370104 0.804713 -32.976905 0.652594 7.864927 -12.358908 -0.000001 0.000001 0.000001 -115.985341 -8.623724 -15.982894 127.637275 12.460540 -6.911508 58.359950 21.407433 45.726388 -0.677389 -0.565808 0.500347 0.000000 -0.000002 -0.000001 
18.453606 40.898605 516.269226 48.151700 -47.170246 74.047379 9.142884 -4.367369 -3.738916 18.588286 -5.258760 -1.680258 0.000000 0.000000 0.000000 18.588317 -5.258756 -1.680255 0.571264 11.532742 -1.744108 -18.427336 26.870557 -9.953123 -0.000001 0.000002 0.000000 0.565315 -3.855090 -26.469876 0.000000 0.000000 0.000000 -0.377986 4.638992 -53.992372 -141.899543 -171.460862 -190.722965 48.339977 -2.166184 23.977628 -5.095738 -4.651572 2.981488 2.310049 6.659724 2.169108 -0.000008 -0.000005 -0.000016 -0.000002 -0.000001 0.000003 -1.518680 -11.204953 -7.773436 0.086793 0.741566 -16.868778 0.000003 0.000009 0.000001 -0.000000 -0.000003 0.000000 -1.231406 -2.446051 -20.976312 -0.314199 -1.284953 -19.422596 0.000000 0.000001 -0.000005 0.000002 -0.000000 -0.000001 -0.542366 6.469909 -31.437001 -0.455128 -2.490900 -27.918724 0.000001 -0.000002 0.000003 -0.000002 0.000000 -0.000000 1.399135 15.407076 -32.270786 -0.765225 -5.834288 -42.824859 0.000003 0.000004 0.000001 0.000000 0.000003 -0.000000 -0.494405 25.605336 15.379853 0.000000 0.000000 0.000000 -27.617725 -15.476792 13.095680 -397.951328 18.998079 362.816097 -31.421517 9.986919 3.015502 -4.886138 -0.502103 -8.999055 3.296522 -8.910258 -2.385465 -0.000005 0.000003 0.000002 0.000000 0.000000 -0.000000 -0.500778 9.004450 4.908678 -0.045895 -0.643380 21.813374 0.000003 -0.000003 0.000008 -0.000000 0.000001 -0.000002 -1.170229 -1.421041 4.831207 -0.435747 1.321408 24.491230 -0.000001 0.000010 -0.000003 0.000000 -0.000001 0.000001 1.289289 -10.051225 18.899808 -0.471409 2.791377 24.127262 0.000000 -0.000000 0.000001 0.000001 0.000001 -0.000000 2.001313 -17.132471 20.631044 -1.228865 7.557168 35.191385 0.000004 -0.000001 0.000004 -0.000000 0.000000 0.000001 -86.172494 -13.841605 37.761247 50.746554 -12.991773 -4.142834 10.371191 0.173914 -28.831977 0.477593 7.517273 -11.745978 -0.000000 0.000002 0.000000 -112.232569 -4.162843 -20.794560 126.873974 18.025322 -5.719106 58.040065 21.760264 47.191642 -1.449899 -1.406163 1.308845 -0.000001 -0.000003 -0.000003 
